<?xml version="1.0" encoding="utf-8"?>
<!-- Generator: Adobe Illustrator 23.0.5, SVG Export Plug-In . SVG Version: 6.00 Build 0)  -->
<svg version="1.1" id="Слой_1" xmlns="http://www.w3.org/2000/svg" xmlns:xlink="http://www.w3.org/1999/xlink" x="0px" y="0px"
	 viewBox="0 0 256 256" style="enable-background:new 0 0 256 256;" xml:space="preserve">
<style type="text/css">
	.st0{fill:url(#SVGID_1_);stroke:#000000;stroke-miterlimit:10;}
	.st1{fill:url(#SVGID_2_);stroke:#000000;stroke-miterlimit:10;}
	.st2{fill:url(#SVGID_3_);stroke:#000000;stroke-miterlimit:10;}
	.st3{fill:#FFFFFF;stroke:#000000;stroke-miterlimit:10;}
	.st4{fill:#FFFFFF;}
</style>
<linearGradient id="SVGID_1_" gradientUnits="userSpaceOnUse" x1="105.5" y1="205.5" x2="151.5" y2="205.5">
	<stop  offset="0" style="stop-color:#CCE0F4"/>
	<stop  offset="0.0641" style="stop-color:#C3DCF2"/>
	<stop  offset="0.1706" style="stop-color:#A9D2EE"/>
	<stop  offset="0.3066" style="stop-color:#80C2E7"/>
	<stop  offset="0.4649" style="stop-color:#47ACDE"/>
	<stop  offset="0.5674" style="stop-color:#1E9CD7"/>
	<stop  offset="0.8652" style="stop-color:#0075BE"/>
	<stop  offset="0.9944" style="stop-color:#005B97"/>
</linearGradient>
<circle class="st0" cx="128.5" cy="205.5" r="23"/>
<linearGradient id="SVGID_2_" gradientUnits="userSpaceOnUse" x1="65.5" y1="81.5" x2="192.5" y2="81.5">
	<stop  offset="0" style="stop-color:#CCE0F4"/>
	<stop  offset="0.0641" style="stop-color:#C3DCF2"/>
	<stop  offset="0.1706" style="stop-color:#A9D2EE"/>
	<stop  offset="0.3066" style="stop-color:#80C2E7"/>
	<stop  offset="0.4649" style="stop-color:#47ACDE"/>
	<stop  offset="0.5674" style="stop-color:#1E9CD7"/>
	<stop  offset="0.8652" style="stop-color:#0075BE"/>
	<stop  offset="0.9944" style="stop-color:#005B97"/>
</linearGradient>
<ellipse class="st1" cx="129" cy="81.5" rx="63.5" ry="59"/>
<linearGradient id="SVGID_3_" gradientUnits="userSpaceOnUse" x1="114.5" y1="156.5" x2="144.5" y2="156.5">
	<stop  offset="0" style="stop-color:#CCE0F4"/>
	<stop  offset="0.0641" style="stop-color:#C3DCF2"/>
	<stop  offset="0.1706" style="stop-color:#A9D2EE"/>
	<stop  offset="0.3066" style="stop-color:#80C2E7"/>
	<stop  offset="0.4649" style="stop-color:#47ACDE"/>
	<stop  offset="0.5674" style="stop-color:#1E9CD7"/>
	<stop  offset="0.8652" style="stop-color:#0075BE"/>
	<stop  offset="0.9944" style="stop-color:#005B97"/>
</linearGradient>
<rect x="114.5" y="138.5" class="st2" width="30" height="36"/>
<ellipse class="st3" cx="108.5" cy="90.5" rx="50" ry="51"/>
<g>
	<g>
		<path class="st4" d="M66.46,59.33c0.03,2.96-2.27,5.19-4.01,7.34c-0.95,1.17-1.89,2.38-2.56,3.74c-0.88,1.8-1.27,3.73-1.61,5.69
			c-1.41,8.28-2.82,16.69-1.95,25.1c0.2,1.9,2.86,1.95,3,0c0.15-2.1,0.29-4.19,0.44-6.29c-0.98,0.13-1.96,0.27-2.95,0.4
			c1.05,4.91,2.27,9.91,4.14,14.58c1.49,3.72,3.65,7.35,7.38,9.17c1.73,0.84,3.25-1.74,1.51-2.59c-3.37-1.64-5.16-5.03-6.4-8.41
			c-1.61-4.39-2.77-8.98-3.75-13.55c-0.37-1.74-2.83-1.21-2.95,0.4c-0.15,2.1-0.29,4.19-0.44,6.29c1,0,2,0,3,0
			c-0.86-8.42,0.5-16.91,2-25.18c0.33-1.81,0.76-3.56,1.73-5.14c0.79-1.29,1.79-2.42,2.74-3.58c1.91-2.33,3.69-4.82,3.66-7.97
			C69.44,57.4,66.44,57.4,66.46,59.33L66.46,59.33z"/>
	</g>
</g>
<g>
	<g>
		<path class="st4" d="M64.44,113.25c-1.65,1.63-1.51,4.16-0.32,6.04c1.32,2.08,3.81,2.94,5.29,4.87c2.42,3.16,3.14,7.58,7.38,8.95
			c0.57,0.18,1.44-0.11,1.69-0.69c1.42-3.25,0.27-7.21-2.98-8.87c-0.46-0.23-1.06-0.31-1.51,0c-1.46,1-2.07,2.69-1.67,4.42
			c0.45,1.93,2.12,3.2,3.66,4.27c3.64,2.54,7.53,4.71,11.58,6.5c3.98,1.76,8.1,3.17,12.33,4.18c2.19,0.52,4.4,0.93,6.63,1.23
			c1.92,0.26,4.01,0.2,5.25-1.51c1.22-1.68,0.62-3.98-1.35-4.73c-2.17-0.83-4.03,0.53-5.47,2.03c-0.83,0.87-0.3,2.67,1.06,2.56
			c2.37-0.2,4.74-0.39,7.12-0.59c1.91-0.16,1.93-3.16,0-3c-2.37,0.2-4.74,0.39-7.12,0.59c0.35,0.85,0.71,1.71,1.06,2.56
			c0.46-0.48,1.14-1.36,1.88-1.42c0.64-0.05,0.49,0.28,0,0.52c-0.75,0.36-1.92,0.06-2.71-0.06c-1.01-0.15-2.01-0.33-3.01-0.53
			c-3.71-0.73-7.36-1.77-10.9-3.1c-3.56-1.34-6.99-2.99-10.27-4.9c-0.9-0.53-8.83-4.91-6.58-6.45c-0.5,0-1.01,0-1.51,0
			c1.66,0.85,2.69,2.96,1.9,4.76c0.56-0.23,1.13-0.46,1.69-0.69c-2.84-0.91-3.75-4.8-5.23-7.05c-1.05-1.6-2.41-2.66-3.93-3.8
			c-1-0.75-3.24-2.64-1.87-3.99C67.93,114.01,65.81,111.88,64.44,113.25L64.44,113.25z"/>
	</g>
</g>
<g>
	<g>
		<path class="st4" d="M67.1,55.18c0,1.68,0,3.36,0,5.04c0,0.78,0.69,1.54,1.5,1.5c0.81-0.04,1.5-0.66,1.5-1.5c0-1.68,0-3.36,0-5.04
			c0-0.78-0.69-1.54-1.5-1.5C67.79,53.72,67.1,54.34,67.1,55.18L67.1,55.18z"/>
	</g>
</g>
<g>
	<g>
		<path class="st4" d="M68.22,55.46c0,0.84,0,1.68,0,2.52c0,0.38,0.17,0.79,0.44,1.06c0.26,0.26,0.69,0.46,1.06,0.44
			c0.39-0.02,0.79-0.14,1.06-0.44c0.27-0.29,0.44-0.65,0.44-1.06c0-0.84,0-1.68,0-2.52c0-0.38-0.17-0.79-0.44-1.06
			c-0.26-0.26-0.69-0.46-1.06-0.44c-0.39,0.02-0.79,0.14-1.06,0.44C68.39,54.7,68.22,55.06,68.22,55.46L68.22,55.46z"/>
	</g>
</g>
<g>
	<g>
		<path class="st4" d="M66.24,54.9c-0.49,5.75,0.76,11.5,3.49,16.57c0.86-0.5,1.73-1.01,2.59-1.51c-3.73-5.43-7.51-10.9-12.34-15.42
			c-0.75-0.7-1.79-0.5-2.36,0.3c-1.65,2.35-1.53,5.27-0.88,7.95c0.81,3.34,2.14,6.6,3.25,9.85c2.37,6.95,4.74,13.89,7.11,20.84
			c0.63,1.84,3.26,1.1,2.89-0.8c-1.53-7.92-4.51-15.52-8.76-22.38c-0.79-1.28-2.74-0.73-2.8,0.76c-0.52,14.78-0.51,29.57,0.01,44.35
			c0.06,1.6,2.71,2.15,2.95,0.4c1.29-9.52,0.87-19.13-1.34-28.48c-0.36-1.53-2.43-1.32-2.89,0c-1.23,3.51-0.85,7.23-0.14,10.8
			c0.74,3.71,1.69,7.38,2.68,11.03c1.97,7.29,4.13,14.6,6.95,21.61c1.36,3.39,2.8,6.93,4.83,9.98c1.69,2.55,4.2,4.53,7.42,3.99
			c3.12-0.52,5.76-2.99,7.77-5.29c1.96-2.23,3.55-4.75,4.8-7.44c2.96-6.37,4.18-13.35,4.97-20.28c-1,0-2,0-3,0
			c0.29,8.66,0.5,18.19-4.97,25.45c0.86,0,1.73,0,2.59,0c-0.53-0.96,0.68-2,1.39-2.51c1.1-0.79,2.46-1.24,3.74-1.64
			c2.31-0.73,4.97-1.39,7.39-0.8c2.36,0.58,3.46,2.56,2.85,4.91c-0.67,2.6-3,4.4-4.97,6.04c0.85,0.35,1.71,0.71,2.56,1.06
			c-0.09-1.83,0.81-3.55,2.41-4.49c0.39-0.23,0.79-0.4,1.23-0.5c0.2-0.06,0.39-0.09,0.6-0.09c-0.12-0.25-0.12-0.2-0.01,0.14
			c0.4,1.02-0.02,2.63-0.3,3.63c-0.53,1.9,2.21,2.56,2.89,0.8c1.17-3.02-1.99-5.24-4.64-5.36c-1.52-0.07-3.01,0.28-4.53,0.19
			c-1.47-0.09-2.9-0.49-4.28-0.99c-5.69-2.08-10.44-6.09-16.54-7.13c-6.29-1.07-13.42,0.37-19.19-2.91
			c-5.2-2.95-6.01-9.42-3.82-14.58c1.36-3.21,3.81-5.87,6.43-8.1c1.36-1.16,2.8-2.21,4.27-3.22c0.69-0.47,3.5-2.64,3.89-0.98
			c0.35-0.62,0.7-1.23,1.05-1.85c-3.23,1.35-6.46,2.71-9.69,4.06c-1.24,0.52-2.64,0.95-3.59,1.94c-0.96,1-1.36,2.39-1.57,3.73
			c-0.93,6.03,2.42,11.62,6.73,15.54c4.35,3.95,9.58,7.39,14.9,9.88c2.69,1.26,5.54,2.34,8.47,2.86c2.88,0.51,5.21-0.35,6.43-3.13
			c2.45-5.59,2.86-12.22,1.94-18.19c-0.45-2.92-1.13-6.33-2.99-8.71c-1.56-2-3.98-2.91-6.47-2.96c-5.56-0.12-10.91,3.3-15.15,6.54
			c-2.36,1.8-4.58,3.77-6.74,5.8c-1.04,0.97-2.06,1.96-3.08,2.95c-0.09,0.09-1.35,1.44-1.36,1.44c-0.29-0.04-0.97-2.06-1.08-2.33
			c-1.4-3.4-2.42-6.96-3.05-10.59c-0.27-1.56-0.62-3.4,0.02-4.91c0.6-1.42,1.97-2.45,3.18-3.33c5.61-4.09,12.01-6.95,18.78-8.48
			c-0.49-0.84-0.97-1.67-1.46-2.51c-2.87,2.58-7.24,3-10.91,3.46c-4.56,0.57-9.17,0.78-13.76,0.63c-3.19-0.1-8.24,0.25-10.05-3.02
			c-1.36-2.45-0.66-5.89,1.18-7.9c2.75-3.01,7.08-3.81,10.98-3.88c1.93-0.03,1.93-3.03,0-3c-4.25,0.08-8.67,0.95-12.02,3.73
			c-2.92,2.43-4.36,6.34-3.64,10.08c0.84,4.38,4.65,6.24,8.74,6.69c5.42,0.59,10.99,0.45,16.41-0.09
			c5.16-0.52,11.16-0.96,15.19-4.59c1.17-1.05-0.08-2.82-1.46-2.51c-5.6,1.26-10.99,3.42-15.9,6.39c-2.28,1.38-4.79,2.9-6.56,4.92
			c-1.98,2.25-2.22,4.89-1.82,7.76c0.43,3.03,1.15,6.02,2.13,8.92c0.46,1.36,0.98,2.69,1.54,4.01c0.5,1.16,0.97,2.63,2.2,3.22
			c2.61,1.25,5.06-2.22,6.68-3.77c2.05-1.96,4.14-3.9,6.35-5.69c3.88-3.15,8.93-6.81,14.13-6.95c2.49-0.07,4.46,0.91,5.48,3.26
			c1.17,2.69,1.69,5.8,1.88,8.71c0.2,3,0,6.03-0.63,8.97c-0.3,1.39-0.68,2.77-1.17,4.1c-0.44,1.2-0.94,2.15-2.35,2.14
			c-1.36-0.02-2.8-0.52-4.09-0.92c-1.38-0.43-2.74-0.95-4.05-1.55c-2.63-1.2-5.13-2.66-7.54-4.24c-5.12-3.36-10.98-7.4-12.72-13.62
			c-0.41-1.47-0.58-3.02-0.36-4.55c0.09-0.62,0.23-1.41,0.58-1.94c0.42-0.62,1.11-0.86,1.77-1.15c3.44-1.47,6.91-2.9,10.36-4.34
			c0.77-0.32,1.25-0.97,1.05-1.85c-0.33-1.4-1.46-2.37-2.84-2.68c-1.74-0.4-3.38,0.48-4.78,1.41c-2.82,1.87-5.58,3.93-7.93,6.38
			c-4.39,4.56-7.22,10.85-5.66,17.24c1.62,6.66,7.84,9.57,14.13,10.33c3.77,0.45,7.6,0.18,11.36,0.74c3.4,0.5,6.41,1.91,9.41,3.52
			c3.11,1.67,6.25,3.51,9.71,4.34c1.76,0.42,3.53,0.54,5.32,0.38c0.91-0.08,4.66-0.51,3.91,1.44c0.96,0.27,1.93,0.53,2.89,0.8
			c0.5-1.8,0.92-4.42-0.03-6.15c-0.87-1.57-2.75-1.6-4.27-1.13c-3.32,1.02-5.67,4.32-5.51,7.79c0.07,1.37,1.56,1.89,2.56,1.06
			c2.82-2.34,5.68-5.01,6-8.89c0.29-3.56-2.08-6.46-5.53-7.15c-3.68-0.74-7.65,0.34-11.04,1.75c-2.92,1.22-6.46,4.2-4.53,7.68
			c0.6,1.08,1.95,0.85,2.59,0c5.77-7.67,5.68-17.82,5.38-26.97c-0.07-1.97-2.79-1.88-3,0c-0.63,5.54-1.59,11.12-3.55,16.36
			c-1.81,4.83-4.86,10.14-9.42,12.87c-1.22,0.73-2.66,1.22-4.03,0.58c-1.24-0.58-2.09-1.8-2.77-2.93c-1.68-2.79-3.01-5.83-4.22-8.85
			c-2.54-6.36-4.53-12.95-6.36-19.55c-1.03-3.69-1.97-7.4-2.81-11.14c-0.81-3.61-1.49-7.35-0.24-10.95c-0.96,0-1.93,0-2.89,0
			c2.07,8.79,2.56,17.93,1.34,26.89c0.98,0.13,1.96,0.27,2.95,0.4c-0.53-14.78-0.53-29.57-0.01-44.35c-0.93,0.25-1.86,0.5-2.8,0.76
			c4.13,6.66,6.98,13.97,8.46,21.66c0.96-0.27,1.93-0.53,2.89-0.8c-2.21-6.48-4.42-12.96-6.63-19.43c-1.07-3.13-2.18-6.24-3.2-9.39
			c-0.78-2.42-1.55-5.25,0.04-7.51c-0.79,0.1-1.57,0.2-2.36,0.3c4.66,4.35,8.29,9.58,11.87,14.81c1.08,1.58,3.52,0.2,2.59-1.51
			c-2.5-4.63-3.52-9.82-3.08-15.05C69.41,52.98,66.4,52.99,66.24,54.9L66.24,54.9z"/>
	</g>
</g>
</svg>
